<?xml version="1.0" encoding="UTF-8"?>
<?xml-stylesheet href="https://cdnjs.cloudflare.com/ajax/libs/font-awesome/6.5.1/css/all.min.css" type="text/css"?>
<svg aria-roledescription="gitGraph" role="graphics-document document" viewBox="-225.60000610351562 -35.20000076293945 686.3333740234375 273.79840087890625" style="max-width: 100%; max-height: 100%; background: white;" xmlns="http://www.w3.org/2000/svg" width="100%" id="mermaid-image-editor"><style>#mermaid-image-editor{font-family:"trebuchet ms",verdana,arial,sans-serif;font-size:16px;fill:#333;}#mermaid-image-editor .error-icon{fill:#552222;}#mermaid-image-editor .error-text{fill:#552222;stroke:#552222;}#mermaid-image-editor .edge-thickness-normal{stroke-width:1px;}#mermaid-image-editor .edge-thickness-thick{stroke-width:3.5px;}#mermaid-image-editor .edge-pattern-solid{stroke-dasharray:0;}#mermaid-image-editor .edge-thickness-invisible{stroke-width:0;fill:none;}#mermaid-image-editor .edge-pattern-dashed{stroke-dasharray:3;}#mermaid-image-editor .edge-pattern-dotted{stroke-dasharray:2;}#mermaid-image-editor .marker{fill:#333333;stroke:#333333;}#mermaid-image-editor .marker.cross{stroke:#333333;}#mermaid-image-editor svg{font-family:"trebuchet ms",verdana,arial,sans-serif;font-size:16px;}#mermaid-image-editor p{margin:0;}#mermaid-image-editor .commit-id,#mermaid-image-editor .commit-msg,#mermaid-image-editor .branch-label{fill:lightgrey;color:lightgrey;font-family:'trebuchet ms',verdana,arial,sans-serif;font-family:var(--mermaid-font-family);}#mermaid-image-editor .branch-label0{fill:#ffffff;}#mermaid-image-editor .commit0{stroke:hsl(240, 100%, 46.2745098039%);fill:hsl(240, 100%, 46.2745098039%);}#mermaid-image-editor .commit-highlight0{stroke:hsl(60, 100%, 3.7254901961%);fill:hsl(60, 100%, 3.7254901961%);}#mermaid-image-editor .label0{fill:hsl(240, 100%, 46.2745098039%);}#mermaid-image-editor .arrow0{stroke:hsl(240, 100%, 46.2745098039%);}#mermaid-image-editor .branch-label1{fill:black;}#mermaid-image-editor .commit1{stroke:hsl(60, 100%, 43.5294117647%);fill:hsl(60, 100%, 43.5294117647%);}#mermaid-image-editor .commit-highlight1{stroke:rgb(0, 0, 160.5);fill:rgb(0, 0, 160.5);}#mermaid-image-editor .label1{fill:hsl(60, 100%, 43.5294117647%);}#mermaid-image-editor .arrow1{stroke:hsl(60, 100%, 43.5294117647%);}#mermaid-image-editor .branch-label2{fill:black;}#mermaid-image-editor .commit2{stroke:hsl(80, 100%, 46.2745098039%);fill:hsl(80, 100%, 46.2745098039%);}#mermaid-image-editor .commit-highlight2{stroke:rgb(48.8333333334, 0, 146.5000000001);fill:rgb(48.8333333334, 0, 146.5000000001);}#mermaid-image-editor .label2{fill:hsl(80, 100%, 46.2745098039%);}#mermaid-image-editor .arrow2{stroke:hsl(80, 100%, 46.2745098039%);}#mermaid-image-editor .branch-label3{fill:#ffffff;}#mermaid-image-editor .commit3{stroke:hsl(210, 100%, 46.2745098039%);fill:hsl(210, 100%, 46.2745098039%);}#mermaid-image-editor .commit-highlight3{stroke:rgb(146.5000000001, 73.2500000001, 0);fill:rgb(146.5000000001, 73.2500000001, 0);}#mermaid-image-editor .label3{fill:hsl(210, 100%, 46.2745098039%);}#mermaid-image-editor .arrow3{stroke:hsl(210, 100%, 46.2745098039%);}#mermaid-image-editor .branch-label4{fill:black;}#mermaid-image-editor .commit4{stroke:hsl(180, 100%, 46.2745098039%);fill:hsl(180, 100%, 46.2745098039%);}#mermaid-image-editor .commit-highlight4{stroke:rgb(146.5000000001, 0, 0);fill:rgb(146.5000000001, 0, 0);}#mermaid-image-editor .label4{fill:hsl(180, 100%, 46.2745098039%);}#mermaid-image-editor .arrow4{stroke:hsl(180, 100%, 46.2745098039%);}#mermaid-image-editor .branch-label5{fill:black;}#mermaid-image-editor .commit5{stroke:hsl(150, 100%, 46.2745098039%);fill:hsl(150, 100%, 46.2745098039%);}#mermaid-image-editor .commit-highlight5{stroke:rgb(146.5000000001, 0, 73.2500000001);fill:rgb(146.5000000001, 0, 73.2500000001);}#mermaid-image-editor .label5{fill:hsl(150, 100%, 46.2745098039%);}#mermaid-image-editor .arrow5{stroke:hsl(150, 100%, 46.2745098039%);}#mermaid-image-editor .branch-label6{fill:black;}#mermaid-image-editor .commit6{stroke:hsl(300, 100%, 46.2745098039%);fill:hsl(300, 100%, 46.2745098039%);}#mermaid-image-editor .commit-highlight6{stroke:rgb(0, 146.5000000001, 0);fill:rgb(0, 146.5000000001, 0);}#mermaid-image-editor .label6{fill:hsl(300, 100%, 46.2745098039%);}#mermaid-image-editor .arrow6{stroke:hsl(300, 100%, 46.2745098039%);}#mermaid-image-editor .branch-label7{fill:black;}#mermaid-image-editor .commit7{stroke:hsl(0, 100%, 46.2745098039%);fill:hsl(0, 100%, 46.2745098039%);}#mermaid-image-editor .commit-highlight7{stroke:rgb(0, 146.5000000001, 146.5000000001);fill:rgb(0, 146.5000000001, 146.5000000001);}#mermaid-image-editor .label7{fill:hsl(0, 100%, 46.2745098039%);}#mermaid-image-editor .arrow7{stroke:hsl(0, 100%, 46.2745098039%);}#mermaid-image-editor .branch{stroke-width:1;stroke:#333333;stroke-dasharray:2;}#mermaid-image-editor .commit-label{font-size:10px;fill:#000021;}#mermaid-image-editor .commit-label-bkg{font-size:10px;fill:#ffffde;opacity:0.5;}#mermaid-image-editor .tag-label{font-size:10px;fill:#131300;}#mermaid-image-editor .tag-label-bkg{fill:#ECECFF;stroke:hsl(240, 60%, 86.2745098039%);}#mermaid-image-editor .tag-hole{fill:#333;}#mermaid-image-editor .commit-merge{stroke:#ECECFF;fill:#ECECFF;}#mermaid-image-editor .commit-reverse{stroke:#ECECFF;fill:#ECECFF;stroke-width:3;}#mermaid-image-editor .commit-highlight-inner{stroke:#ECECFF;fill:#ECECFF;}#mermaid-image-editor .arrow{stroke-width:8;stroke-linecap:round;fill:none;}#mermaid-image-editor .gitTitleText{text-anchor:middle;font-size:18px;fill:#333;}#mermaid-image-editor :root{--mermaid-font-family:"trebuchet ms",verdana,arial,sans-serif;}</style><g></g><g class="commit-bullets"></g><g class="commit-labels"></g><g><line class="branch branch0" y2="0" x2="400" y1="0" x1="0"></line><rect transform="translate(-19, -9)" height="22" width="52.68333435058594" y="-1" x="-68.68333435058594" ry="4" rx="4" class="branchLabelBkg label0"></rect><g class="branchLabel"><g transform="translate(-78.68333435058594, -10)" class="label branch-label0"><text><tspan class="row" x="0" dy="1em" xml:space="preserve">main</tspan></text></g></g><line class="branch branch1" y2="90" x2="400" y1="90" x1="0"></line><rect transform="translate(-19, 81)" height="22" width="162.13333129882812" y="-1" x="-178.13333129882812" ry="4" rx="4" class="branchLabelBkg label1"></rect><g class="branchLabel"><g transform="translate(-188.13333129882812, 80)" class="label branch-label1"><text><tspan class="row" x="0" dy="1em" xml:space="preserve">featureBegruessung</tspan></text></g></g><line class="branch branch2" y2="180" x2="400" y1="180" x1="0"></line><rect transform="translate(-19, 171)" height="22" width="182.60000610351562" y="-1" x="-198.60000610351562" ry="4" rx="4" class="branchLabelBkg label2"></rect><g class="branchLabel"><g transform="translate(-208.60000610351562, 170)" class="label branch-label2"><text><tspan class="row" x="0" dy="1em" xml:space="preserve">featureVerabschiedung</tspan></text></g></g></g><g class="commit-arrows"><path class="arrow arrow0" d="M 10 0 L 60 0"></path><path class="arrow arrow0" d="M 60 0 L 110 0"></path><path class="arrow arrow1" d="M 110 0 L 110 70 A 20 20, 0, 0, 0, 130 90 L 160 90"></path><path class="arrow arrow1" d="M 160 90 L 210 90"></path><path class="arrow arrow2" d="M 110 0 L 110 160 A 20 20, 0, 0, 0, 130 180 L 260 180"></path><path class="arrow arrow0" d="M 110 0 L 310 0"></path><path class="arrow arrow2" d="M 260 180 L 290 180 A 20 20, 0, 0, 0, 310 160 L 310 0"></path><path class="arrow arrow0" d="M 310 0 L 360 0"></path></g><g class="commit-bullets"><circle class="commit d04664e commit0" r="10" cy="0" cx="10"></circle><circle class="commit 7a910bf commit0" r="10" cy="0" cx="60"></circle><circle class="commit 896a1da commit0" r="10" cy="0" cx="110"></circle><circle class="commit fb45c39 commit1" r="10" cy="90" cx="160"></circle><circle class="commit a1b2c3d commit1" r="10" cy="90" cx="210"></circle><circle class="commit 46a682f commit2" r="10" cy="180" cx="260"></circle><circle class="commit 6-fedc1c6 commit0" r="9" cy="0" cx="310"></circle><circle class="commit commit-merge 6-fedc1c6 commit0" r="6" cy="0" cx="310"></circle><circle class="commit merged-featureVerabschiedung commit0" r="10" cy="0" cx="360"></circle></g><g class="commit-labels"><g transform="translate(-26.107333526611328, 23.248666839599608) rotate(-45, 0, 0)"><rect height="16" width="42.96666717529297" y="13.5" x="-11.483333587646484" class="commit-label-bkg"></rect><text class="commit-label" y="25" x="-9.483333587646484">d04664e</text></g><polygon points="-32.50833320617676,-17.2  
      -32.50833320617676,-21.2
      -24.508333206176758,-27.2
      44.50833320617676,-27.2
      44.50833320617676,-11.2
      -24.508333206176758,-11.2" class="tag-label-bkg"></polygon><circle class="tag-hole" r="1.5" cx="-28.508333206176758" cy="-19.2"></circle><text x="-20.508333206176758" class="tag-label" y="-16">Initial Commit</text><g transform="translate(-25.21433265686035, 22.449666061401366) rotate(-45, 50, 0)"><rect height="16" width="40.61666488647461" y="13.5" x="39.691667556762695" class="commit-label-bkg"></rect><text class="commit-label" y="25" x="41.691667556762695">7a910bf</text></g><polygon points="19.633333206176758,-17.2  
      19.633333206176758,-21.2
      27.633333206176758,-27.2
      92.36666679382324,-27.2
      92.36666679382324,-11.2
      27.633333206176758,-11.2" class="tag-label-bkg"></polygon><circle class="tag-hole" r="1.5" cx="23.633333206176758" cy="-19.2"></circle><text x="31.633333206176758" class="tag-label" y="-16">Update main</text><g transform="translate(-26.43666618347168, 23.543332901000976) rotate(-45, 100, 0)"><rect height="16" width="43.83333206176758" y="13.5" x="88.08333396911621" class="commit-label-bkg"></rect><text class="commit-label" y="25" x="90.08333396911621">896a1da</text></g><polygon points="51.54166793823242,-17.2  
      51.54166793823242,-21.2
      59.54166793823242,-27.2
      160.45833206176758,-27.2
      160.45833206176758,-11.2
      59.54166793823242,-11.2" class="tag-label-bkg"></polygon><circle class="tag-hole" r="1.5" cx="55.54166793823242" cy="-19.2"></circle><text x="63.54166793823242" class="tag-label" y="-16">Another main update</text><g transform="translate(-24.83433265686035, 22.109666061401366) rotate(-45, 150, 90)"><rect height="16" width="39.61666488647461" y="103.5" x="140.1916675567627" class="commit-label-bkg"></rect><text class="commit-label" y="115" x="142.1916675567627">fb45c39</text></g><polygon points="68.7249984741211,72.8  
      68.7249984741211,68.8
      76.7249984741211,62.8
      243.2750015258789,62.8
      243.2750015258789,78.8
      76.7249984741211,78.8" class="tag-label-bkg"></polygon><circle class="tag-hole" r="1.5" cx="72.7249984741211" cy="70.8"></circle><text x="80.7249984741211" class="tag-label" y="74">refactor: extract func begruessung()</text><g transform="translate(-25.892000579833983, 23.05600051879883) rotate(-45, 200, 90)"><rect height="16" width="42.400001525878906" y="103.5" x="188.79999923706055" class="commit-label-bkg"></rect><text class="commit-label" y="115" x="190.79999923706055">a1b2c3d</text></g><polygon points="88.67500305175781,72.8  
      88.67500305175781,68.8
      96.67500305175781,62.8
      323.3249969482422,62.8
      323.3249969482422,78.8
      96.67500305175781,78.8" class="tag-label-bkg"></polygon><circle class="tag-hole" r="1.5" cx="92.67500305175781" cy="70.8"></circle><text x="100.67500305175781" class="tag-label" y="74">refactor: add param name for func begruessung()</text><g transform="translate(-25.21433265686035, 22.449666061401366) rotate(-45, 250, 180)"><rect height="16" width="40.61666488647461" y="193.5" x="239.6916675567627" class="commit-label-bkg"></rect><text class="commit-label" y="205" x="241.6916675567627">46a682f</text></g><polygon points="177.91666412353516,162.8  
      177.91666412353516,158.8
      185.91666412353516,152.8
      334.08333587646484,152.8
      334.08333587646484,168.8
      185.91666412353516,168.8" class="tag-label-bkg"></polygon><circle class="tag-hole" r="1.5" cx="181.91666412353516" cy="160.8"></circle><text x="189.91666412353516" class="tag-label" y="164">refactor: extract func tschuess()</text><g transform="translate(-64.57599884033203, 57.66799896240234) rotate(-45, 350, 0)"><rect height="16" width="144.1999969482422" y="13.5" x="287.9000015258789" class="commit-label-bkg"></rect><text class="commit-label" y="25" x="289.9000015258789">merged-featureVerabschiedung</text></g><polygon points="259.2666702270508,-17.2  
      259.2666702270508,-21.2
      267.2666702270508,-27.2
      452.7333297729492,-27.2
      452.7333297729492,-11.2
      267.2666702270508,-11.2" class="tag-label-bkg"></polygon><circle class="tag-hole" r="1.5" cx="263.2666702270508" cy="-19.2"></circle><text x="271.2666702270508" class="tag-label" y="-16">Merge featureVerabschiedung into main</text></g></svg>